<svg xmlns="http://www.w3.org/2000/svg" width="50" height="50" viewBox="0 0 50 50" fill="none">
<circle cx="25" cy="25" r="25" fill="white"/>
<path d="M23.6875 32.8125C23.075 32.3525 22.1875 32.7875 22.1875 33.5625V34.42C21.42 34.3775 20.67 34.3212 19.9588 34.2425C13.865 33.615 11.875 32.13 11.875 31.6875C11.875 31.5525 12.2863 30.9162 14.285 30.2512C14.7 30.155 15.0063 29.7825 15.0063 29.3375C15.0063 28.7212 14.3588 28.2562 13.7713 28.4462C11.2688 29.265 10 30.355 10 31.6875C10 34.77 16.83 35.805 19.76 36.1075C20.535 36.1925 21.3488 36.255 22.1875 36.3V37.3125C22.1875 38.0875 23.075 38.5212 23.6875 38.0625L26.1875 36.1875C26.685 35.8137 26.6875 35.0625 26.1875 34.6875L23.6875 32.8125Z" fill="#319F1C"/>
<path d="M36.2225 28.4462C35.7275 28.285 35.2013 28.555 35.04 29.0475C34.88 29.54 35.1488 30.0687 35.6413 30.23C37.6688 30.89 38.125 31.52 38.125 31.6887C38.125 32.2425 35.5538 33.7862 29.19 34.3175C28.6737 34.3612 28.2912 34.8137 28.3337 35.33C28.375 35.8237 28.7975 36.2237 29.3462 36.1862C32.5488 35.9162 40 34.9425 40 31.6875C40 30.3537 38.7288 29.2625 36.2225 28.4462Z" fill="#319F1C"/>
<path d="M24.9999 12L33.7499 15.75L24.9999 19.5L16.2499 15.75L24.9999 12Z" fill="#319F1C"/>
<path d="M26.2501 21.6837V28.9637L33.7501 25.75V18.47L26.2501 21.6837Z" fill="#319F1C"/>
<path d="M23.7499 21.6837L16.2499 18.47V25.75L23.7499 28.9637V21.6837Z" fill="#319F1C"/>
</svg>