<svg xmlns="http://www.w3.org/2000/svg" width="348" height="96" viewBox="0 0 348 96" fill="none">
<g filter="url(#filter0_d_4_43)">
<rect x="55.816" y="20" width="282.184" height="55" rx="3" fill="white"/>
<ellipse cx="47.8176" cy="48" rx="37.8174" ry="38" fill="white"/>
</g>
<path d="M134 46.66C134.787 46.94 135.387 47.36 135.8 47.92C136.213 48.4667 136.42 49.14 136.42 49.94C136.42 51.1933 135.92 52.1867 134.92 52.92C133.933 53.64 132.533 54 130.72 54H123.24V40H130.34C132.073 40 133.413 40.32 134.36 40.96C135.32 41.6 135.8 42.5 135.8 43.66C135.8 44.3267 135.64 44.9133 135.32 45.42C135.013 45.9267 134.573 46.34 134 46.66ZM127.88 45.38H129.88C130.653 45.38 131.04 45.04 131.04 44.36C131.04 43.6533 130.653 43.3 129.88 43.3H127.88V45.38ZM130.5 50.7C131.273 50.7 131.66 50.3267 131.66 49.58C131.66 48.86 131.273 48.5 130.5 48.5H127.88V50.7H130.5ZM138.103 40H142.743V47.28L147.563 40H152.003V54H147.363V46.74L142.563 54H138.103V40ZM170.19 50.34V56.74H165.87V54H157.91V56.74H153.59V50.34H153.99C154.803 50.34 155.377 49.8267 155.71 48.8C156.043 47.7733 156.257 46.26 156.35 44.26L156.51 40H168.35V50.34H170.19ZM160.45 44.66C160.397 46.0067 160.29 47.1533 160.13 48.1C159.97 49.0333 159.723 49.78 159.39 50.34H163.71V43.66H160.49L160.45 44.66ZM183.415 50.44V54H171.775V40H183.155V43.56H176.415V45.2H182.335V48.6H176.415V50.44H183.415ZM192.45 54.32C190.943 54.32 189.59 54.0067 188.39 53.38C187.19 52.7533 186.25 51.8867 185.57 50.78C184.89 49.66 184.55 48.4 184.55 47C184.55 45.6 184.89 44.3467 185.57 43.24C186.25 42.12 187.19 41.2467 188.39 40.62C189.59 39.9933 190.943 39.68 192.45 39.68C193.957 39.68 195.31 39.9933 196.51 40.62C197.71 41.2467 198.65 42.12 199.33 43.24C200.01 44.3467 200.35 45.6 200.35 47C200.35 48.4 200.01 49.66 199.33 50.78C198.65 51.8867 197.71 52.7533 196.51 53.38C195.31 54.0067 193.957 54.32 192.45 54.32ZM192.45 50.5C193.037 50.5 193.563 50.36 194.03 50.08C194.51 49.7867 194.89 49.38 195.17 48.86C195.45 48.3267 195.59 47.7067 195.59 47C195.59 46.2933 195.45 45.68 195.17 45.16C194.89 44.6267 194.51 44.22 194.03 43.94C193.563 43.6467 193.037 43.5 192.45 43.5C191.863 43.5 191.33 43.6467 190.85 43.94C190.383 44.22 190.01 44.6267 189.73 45.16C189.45 45.68 189.31 46.2933 189.31 47C189.31 47.7067 189.45 48.3267 189.73 48.86C190.01 49.38 190.383 49.7867 190.85 50.08C191.33 50.36 191.863 50.5 192.45 50.5ZM209.169 54.32C207.662 54.32 206.309 54.0067 205.109 53.38C203.909 52.7533 202.969 51.8867 202.289 50.78C201.609 49.66 201.269 48.4 201.269 47C201.269 45.6 201.609 44.3467 202.289 43.24C202.969 42.12 203.909 41.2467 205.109 40.62C206.309 39.9933 207.662 39.68 209.169 39.68C210.675 39.68 212.029 39.9933 213.229 40.62C214.429 41.2467 215.369 42.12 216.049 43.24C216.729 44.3467 217.069 45.6 217.069 47C217.069 48.4 216.729 49.66 216.049 50.78C215.369 51.8867 214.429 52.7533 213.229 53.38C212.029 54.0067 210.675 54.32 209.169 54.32ZM209.169 50.5C209.755 50.5 210.282 50.36 210.749 50.08C211.229 49.7867 211.609 49.38 211.889 48.86C212.169 48.3267 212.309 47.7067 212.309 47C212.309 46.2933 212.169 45.68 211.889 45.16C211.609 44.6267 211.229 44.22 210.749 43.94C210.282 43.6467 209.755 43.5 209.169 43.5C208.582 43.5 208.049 43.6467 207.569 43.94C207.102 44.22 206.729 44.6267 206.449 45.16C206.169 45.68 206.029 46.2933 206.029 47C206.029 47.7067 206.169 48.3267 206.449 48.86C206.729 49.38 207.102 49.7867 207.569 50.08C208.049 50.36 208.582 50.5 209.169 50.5ZM230.492 43.66H226.392V54H221.752V43.66H217.652V40H230.492V43.66ZM241.429 46.72C242.175 47.0267 242.755 47.4733 243.169 48.06C243.595 48.6467 243.809 49.3133 243.809 50.06C243.809 50.94 243.495 51.7067 242.869 52.36C242.255 53 241.422 53.4933 240.369 53.84C239.329 54.1733 238.169 54.34 236.889 54.34C234.849 54.34 232.909 53.9333 231.069 53.12L232.449 49.86C233.102 50.1267 233.782 50.3333 234.489 50.48C235.195 50.6133 235.862 50.68 236.489 50.68C237.249 50.68 237.862 50.5733 238.329 50.36C238.809 50.1467 239.049 49.8333 239.049 49.42C239.049 48.86 238.589 48.58 237.669 48.58H233.889V45.18H237.269C237.669 45.18 237.969 45.1067 238.169 44.96C238.382 44.8133 238.489 44.6067 238.489 44.34C238.489 43.9933 238.302 43.7267 237.929 43.54C237.569 43.3533 237.089 43.26 236.489 43.26C235.929 43.26 235.322 43.34 234.669 43.5C234.015 43.66 233.395 43.8867 232.809 44.18L231.429 40.68C232.975 39.9733 234.655 39.62 236.469 39.62C237.682 39.62 238.802 39.7867 239.829 40.12C240.869 40.4533 241.695 40.94 242.309 41.58C242.935 42.2067 243.249 42.9467 243.249 43.8C243.249 44.4267 243.089 44.9933 242.769 45.5C242.449 46.0067 242.002 46.4133 241.429 46.72ZM253.026 44.3C254.773 44.3 256.12 44.6933 257.066 45.48C258.013 46.2533 258.486 47.4 258.486 48.92C258.486 50.56 257.946 51.82 256.866 52.7C255.786 53.5667 254.306 54 252.426 54H245.486V40H250.126V44.3H253.026ZM252.106 50.7C252.586 50.7 252.98 50.5533 253.286 50.26C253.593 49.9533 253.746 49.5333 253.746 49C253.746 48.0667 253.2 47.6 252.106 47.6H250.126V50.7H252.106ZM259.766 40H264.406V54H259.766V40ZM277.652 46.66C278.439 46.94 279.039 47.36 279.452 47.92C279.866 48.4667 280.072 49.14 280.072 49.94C280.072 51.1933 279.572 52.1867 278.572 52.92C277.586 53.64 276.186 54 274.372 54H266.892V40H273.992C275.726 40 277.066 40.32 278.012 40.96C278.972 41.6 279.452 42.5 279.452 43.66C279.452 44.3267 279.292 44.9133 278.972 45.42C278.666 45.9267 278.226 46.34 277.652 46.66ZM271.532 45.38H273.532C274.306 45.38 274.692 45.04 274.692 44.36C274.692 43.6533 274.306 43.3 273.532 43.3H271.532V45.38ZM274.152 50.7C274.926 50.7 275.312 50.3267 275.312 49.58C275.312 48.86 274.926 48.5 274.152 48.5H271.532V50.7H274.152Z" fill="#319F1C"/>
<g clip-path="url(#clip0_4_43)">
<path d="M48.0001 20C32.56 20 20.0001 32.5611 20.0001 48C20.0001 63.4389 32.56 76 48.0001 76C63.4403 76 76.0001 63.4389 76.0001 48C76.0001 32.5611 63.4403 20 48.0001 20ZM59.1313 48.981L42.798 59.481C42.6066 59.6051 42.3856 59.6667 42.1668 59.6667C41.9754 59.6667 41.7817 59.6188 41.6086 59.5243C41.2325 59.3192 41.0001 58.9272 41.0001 58.5V37.5C41.0001 37.0728 41.2325 36.6808 41.6086 36.4757C41.9777 36.2729 42.4403 36.2854 42.798 36.519L59.1313 47.019C59.464 47.2332 59.6668 47.6035 59.6668 48C59.6668 48.3965 59.464 48.7667 59.1313 48.981Z" fill="#595959"/>
</g>
<defs>
<filter id="filter0_d_4_43" x="0.00012207" y="0" width="348" height="96" filterUnits="userSpaceOnUse" color-interpolation-filters="sRGB">
<feFlood flood-opacity="0" result="BackgroundImageFix"/>
<feColorMatrix in="SourceAlpha" type="matrix" values="0 0 0 0 0 0 0 0 0 0 0 0 0 0 0 0 0 0 127 0" result="hardAlpha"/>
<feOffset/>
<feGaussianBlur stdDeviation="5"/>
<feColorMatrix type="matrix" values="0 0 0 0 0 0 0 0 0 0 0 0 0 0 0 0 0 0 0.15 0"/>
<feBlend mode="normal" in2="BackgroundImageFix" result="effect1_dropShadow_4_43"/>
<feBlend mode="normal" in="SourceGraphic" in2="effect1_dropShadow_4_43" result="shape"/>
</filter>
<clipPath id="clip0_4_43">
<rect width="56" height="56" fill="white" transform="translate(20.0001 20)"/>
</clipPath>
</defs>
</svg>