<svg xmlns="http://www.w3.org/2000/svg" width="95" height="302" viewBox="0 0 95 302" fill="none">
<g filter="url(#filter0_d_4_11)">
<path d="M8 11C8 9.34315 9.34315 8 11 8H95V72H11C9.34315 72 8 70.6569 8 69V11Z" fill="white"/>
</g>
<g filter="url(#filter1_d_4_11)">
<path d="M8 85C8 83.3431 9.34315 82 11 82H95V146H11C9.34315 146 8 144.657 8 143V85Z" fill="white"/>
</g>
<g filter="url(#filter2_d_4_11)">
<path d="M8 159C8 157.343 9.34315 156 11 156H95V220H11C9.34315 220 8 218.657 8 217V159Z" fill="white"/>
</g>
<g filter="url(#filter3_d_4_11)">
<path d="M8 233C8 231.343 9.34315 230 11 230H95V294H11C9.34315 294 8 292.657 8 291V233Z" fill="white"/>
</g>
<path d="M61.9078 22H42.0921C40.1825 22 38.6289 23.5536 38.6289 25.4632V54.5368C38.6289 56.4464 40.1825 58 42.0921 58H61.9078C63.8174 58 65.371 56.4464 65.371 54.5368V25.4632C65.371 23.5536 63.8174 22 61.9078 22ZM43.3756 27.9833C43.3756 27.4008 43.8479 26.9286 44.4303 26.9286H59.5695C60.152 26.9286 60.6242 27.4008 60.6242 27.9833V30.0658C60.6242 30.6483 60.152 31.1205 59.5695 31.1205H44.4303C43.8479 31.1205 43.3756 30.6483 43.3756 30.0658V27.9833ZM46.9265 51.666C46.9265 52.2484 46.4543 52.7207 45.8718 52.7207H44.4304C43.8479 52.7207 43.3757 52.2484 43.3757 51.666V50.6667C43.3757 50.0842 43.8479 49.612 44.4304 49.612H45.8718C46.4543 49.612 46.9265 50.0842 46.9265 50.6667V51.666ZM46.9265 45.4243C46.9265 46.0068 46.4543 46.479 45.8718 46.479H44.4304C43.8479 46.479 43.3757 46.0068 43.3757 45.4243V44.425C43.3757 43.8426 43.8479 43.3704 44.4304 43.3704H45.8718C46.4543 43.3704 46.9265 43.8426 46.9265 44.425V45.4243ZM53.8618 51.666C53.8618 52.2484 53.3895 52.7207 52.8071 52.7207H51.3657C50.7831 52.7207 50.311 52.2484 50.311 51.666V50.6667C50.311 50.0842 50.7831 49.612 51.3657 49.612H52.8071C53.3895 49.612 53.8618 50.0842 53.8618 50.6667V51.666ZM53.8618 45.4243C53.8618 46.0068 53.3895 46.479 52.8071 46.479H51.3657C50.7831 46.479 50.311 46.0068 50.311 45.4243V44.425C50.311 43.8426 50.7831 43.3704 51.3657 43.3704H52.8071C53.3895 43.3704 53.8618 43.8426 53.8618 44.425V45.4243ZM53.8618 39.1826C53.8618 39.7652 53.3895 40.2373 52.8071 40.2373H44.4303C43.8479 40.2373 43.3756 39.7651 43.3756 39.1826V38.1833C43.3756 37.6009 43.8479 37.1286 44.4303 37.1286H52.8071C53.3895 37.1286 53.8618 37.6009 53.8618 38.1833V39.1826ZM60.797 51.666C60.797 52.2484 60.3248 52.7207 59.7423 52.7207H58.3009C57.7185 52.7207 57.2463 52.2484 57.2463 51.666V50.6667C57.2463 50.0842 57.7185 49.612 58.3009 49.612H59.7423C60.3248 49.612 60.797 50.0842 60.797 50.6667V51.666ZM60.797 45.4243C60.797 46.0068 60.3248 46.479 59.7423 46.479H58.3009C57.7185 46.479 57.2463 46.0068 57.2463 45.4243V44.425C57.2463 43.8426 57.7185 43.3704 58.3009 43.3704H59.7423C60.3248 43.3704 60.797 43.8426 60.797 44.425V45.4243ZM60.797 39.1826C60.797 39.7652 60.3248 40.2373 59.7423 40.2373H58.3009C57.7185 40.2373 57.2463 39.7651 57.2463 39.1826V38.1833C57.2463 37.6009 57.7185 37.1286 58.3009 37.1286H59.7423C60.3248 37.1286 60.797 37.6009 60.797 38.1833V39.1826Z" fill="#319F1C"/>
<g clip-path="url(#clip0_4_11)">
<path d="M69.4721 117.869L63.6686 102.436C63.6669 102.433 63.6669 102.43 63.6656 102.427L63.6639 102.425C62.899 100.39 60.9234 99.0234 58.75 99.0234C56.5766 99.0234 54.601 100.39 53.8344 102.427C53.6125 103.018 53.4999 103.64 53.4999 104.274V111.024H50.5001V104.274C50.5001 101.378 48.1449 99.0234 45.25 99.0234C43.0766 99.0234 41.101 100.39 40.3344 102.427C40.3331 102.43 40.3331 102.433 40.3314 102.436L34.5279 117.865C34.5279 117.866 34.5265 117.866 34.5265 117.866C34.1769 118.798 34 119.774 34 120.773C34 125.323 37.7021 129.024 42.2499 129.024C46.798 129.024 50.5001 125.323 50.5001 120.773V120.024H53.4999V120.773C53.4999 125.323 57.202 129.024 61.7501 129.024C66.2979 129.024 70 125.323 70 120.773C70 119.774 69.8231 118.798 69.4721 117.869ZM42.2499 126.023C39.355 126.023 37.0001 123.669 37.0001 120.773C37.0001 120.138 37.1124 119.515 37.3346 118.925C38.0995 116.891 40.0749 115.524 42.2499 115.524C45.1451 115.524 47.5 117.878 47.5 120.773C47.5 123.669 45.1451 126.023 42.2499 126.023ZM61.7501 126.023C58.8549 126.023 56.5 123.669 56.5 120.773C56.5 117.878 58.8549 115.524 61.7501 115.524C63.9251 115.524 65.9005 116.891 66.6654 118.925C66.8876 119.515 66.9999 120.138 66.9999 120.773C66.9999 123.669 64.645 126.023 61.7501 126.023Z" fill="#319F1C"/>
</g>
<path d="M46.7565 274.435H49.4174L49.1826 273.496C49.1044 273.183 48.7913 272.87 48.4 272.87H47.3044C46.0522 272.87 44.8783 272.243 44.0957 271.226L41.6696 267.861L38.6957 269.113L45.4261 273.965C45.7392 274.278 46.287 274.435 46.7565 274.435Z" fill="#319F1C"/>
<path d="M58.2608 250.174H44.1738C43.1565 250.174 42.2956 250.8 41.9825 251.739H60.4521C60.1391 250.8 59.2782 250.174 58.2608 250.174Z" fill="#319F1C"/>
<path d="M58.2608 248.609C59.0434 248.609 59.826 248.843 60.4521 249.313C59.826 246.026 57.5565 243.209 54.3478 242.113V247.043H52.7825V240.783C52.7825 240.313 52.4695 240 51.9999 240H50.4347C49.9652 240 49.6521 240.313 49.6521 240.783V247.043H48.0869V242.113C44.8782 243.209 42.5304 245.948 41.9825 249.313C42.6086 248.843 43.3912 248.609 44.1738 248.609H58.2608Z" fill="#319F1C"/>
<path d="M55.0522 272.87H53.9566C53.5653 272.87 53.2522 273.104 53.174 273.496L53.0175 274.435H55.6783C56.1479 274.435 56.6957 274.278 57.087 273.965L62.174 270.209V268.252L60.7653 267.704L58.2609 271.226C57.5566 272.243 56.3827 272.87 55.0522 272.87Z" fill="#319F1C"/>
<path d="M66.8696 266.296C66.8696 265.983 66.2435 265.513 65.3044 265.513C64.3652 265.513 63.7391 265.983 63.7391 266.296V273.496L66.8696 269.113V266.296Z" fill="#319F1C"/>
<path d="M43.3913 258.47V258.939C43.3913 260.974 44.487 262.774 46.2087 263.713L48.5565 264.965C50.2 265.826 52.1565 265.826 53.8 264.965L56.1478 263.713C57.8696 262.774 58.9652 260.896 58.9652 258.939V258.47L60.3739 257.609C60.4522 257.53 60.5305 257.452 60.5305 257.296V255.104C60.5305 254.948 60.3739 254.791 60.1392 254.791C60.0609 254.791 59.9826 254.791 59.9826 254.87L59.0435 255.965V253.304H43.3913V255.965L42.3739 254.948C42.2174 254.791 41.9826 254.87 41.9044 254.948C41.8261 255.026 41.8261 255.104 41.8261 255.104V257.296C41.8261 257.374 41.9044 257.53 41.9826 257.609L43.3913 258.47Z" fill="#319F1C"/>
<path d="M66.8696 280.696V277.017L64.4435 280.696H66.8696Z" fill="#319F1C"/>
<path d="M68.4348 269.661V269.739H68.3565L58.2609 283.826H70V267.469L68.4348 269.661ZM68.4348 282.261H61.4696L68.4348 271.852V282.261Z" fill="#319F1C"/>
<path d="M62.1739 272.165L57.9478 275.217C57.2435 275.687 56.4609 276 55.6783 276H52V283.826H56.3043L62.1739 275.687V272.165Z" fill="#319F1C"/>
<path d="M41.0435 282.261H46.5217V283.826H41.0435V282.261Z" fill="#319F1C"/>
<path d="M41.0435 279.13H46.5217V280.696H41.0435V279.13Z" fill="#319F1C"/>
<path d="M54.0348 271.304H55.1305C55.9131 271.304 56.6174 270.913 57.0087 270.287L59.2783 267.156L55.7565 265.826L54.5826 266.452C52.4696 267.626 49.9652 267.626 47.8522 266.452L46.6783 265.826L43.2348 267.235L45.4261 270.287C45.8957 270.913 46.6 271.304 47.3044 271.304H48.4C49.4957 271.304 50.4348 272.009 50.6696 273.104L51.2174 275.139L51.7652 273.104C52 272.009 52.9391 271.304 54.0348 271.304Z" fill="#319F1C"/>
<path d="M44.487 275.217L37.1304 269.896C35.1739 271.226 34 273.417 34 275.765V283.826H39.4783V277.565H40.8087L40.2609 275.374L41.7478 274.983L42.3739 277.487H48.087V283.748H50.4348V276H46.7565C45.8957 276 45.113 275.765 44.487 275.217Z" fill="#319F1C"/>
<path d="M38.7473 195.037C38.7417 194.952 38.7377 194.867 38.7377 194.781C38.7377 193.273 39.6253 191.969 40.905 191.362C40.6525 191.136 40.4117 190.902 40.1865 190.659C40.0352 190.495 39.8251 190.398 39.6024 190.389C39.3794 190.38 39.1626 190.461 38.9989 190.612L37.1473 192.323C36.8064 192.638 36.7855 193.17 37.1005 193.511C37.6017 194.053 38.1533 194.562 38.7473 195.037Z" fill="#319F1C"/>
<path d="M69.9667 207.156L68.3137 203.253L68.4666 203.159C68.8623 202.916 68.9863 202.399 68.7434 202.003L64.7196 195.446C65.5198 194.859 66.2515 194.213 66.8997 193.511C67.2148 193.17 67.1938 192.639 66.8529 192.324L65.0014 190.612C64.8376 190.461 64.6197 190.381 64.3977 190.39C64.1751 190.398 63.965 190.495 63.8136 190.659C63.4216 191.083 62.9862 191.481 62.5139 191.851L57.5367 183.74C58.1808 182.726 58.5555 181.525 58.5555 180.237C58.5555 177.747 57.1599 175.577 55.11 174.467C55.6013 173.994 55.908 173.331 55.908 172.597C55.908 171.165 54.7431 170 53.3111 170H50.6889C49.2569 170 48.092 171.165 48.092 172.597C48.092 173.331 48.3986 173.994 48.89 174.467C46.84 175.577 45.4445 177.747 45.4445 180.237C45.4445 181.525 45.8192 182.726 46.4633 183.74L41.9854 191.038C42.1601 191.013 42.3383 190.999 42.5197 190.999C44.2798 190.999 45.763 192.208 46.1828 193.839L50.6001 186.64C51.0515 186.739 51.5195 186.792 52 186.792C52.4805 186.792 52.9485 186.739 53.3998 186.64L58.0278 194.183C56.1798 194.785 54.1295 195.111 51.9999 195.111C49.9827 195.111 48.037 194.818 46.2668 194.275C46.289 194.441 46.3016 194.61 46.3016 194.782C46.3016 196.189 45.5282 197.418 44.3846 198.07C46.7346 198.876 49.3262 199.313 51.9999 199.313C54.9238 199.313 57.7503 198.792 60.2689 197.835L64.4451 204.641C64.5617 204.831 64.7491 204.967 64.9657 205.019C65.0304 205.034 65.0961 205.042 65.1614 205.042C65.3153 205.042 65.4677 204.999 65.6009 204.918L65.8397 204.771L68.5919 208.004C68.6743 208.101 68.7925 208.152 68.9122 208.152C68.9879 208.152 69.0644 208.132 69.1328 208.09L69.8001 207.678C69.9771 207.569 70.0476 207.347 69.9667 207.156ZM52.0001 184.271C49.7756 184.271 47.9659 182.461 47.9659 180.237C47.9659 178.452 49.1307 176.936 50.7394 176.405V178.808C50.7394 179.504 51.3038 180.069 52.0001 180.069C52.6963 180.069 53.2607 179.504 53.2607 178.808V176.405C54.8695 176.936 56.0342 178.452 56.0342 180.237C56.0342 182.461 54.2245 184.271 52.0001 184.271Z" fill="#319F1C"/>
<path d="M38.9404 196L35.2567 202.003C35.014 202.399 35.1378 202.916 35.5334 203.159L35.6864 203.253L34.0334 207.156C33.9525 207.347 34.0231 207.568 34.1996 207.677L34.8671 208.089C34.9355 208.132 35.0118 208.152 35.0876 208.152C35.2073 208.152 35.3254 208.101 35.4078 208.004L38.16 204.771L38.3989 204.917C38.5322 204.999 38.6846 205.041 38.8384 205.041C38.9038 205.041 38.9695 205.034 39.0341 205.018C39.2508 204.966 39.4382 204.83 39.5548 204.641L43.3394 198.473C43.0752 198.531 42.8013 198.563 42.5197 198.563C40.8608 198.563 39.4489 197.489 38.9404 196Z" fill="#319F1C"/>
<path d="M42.4903 196.798C43.6043 196.798 44.5074 195.895 44.5074 194.781C44.5074 193.667 43.6043 192.764 42.4903 192.764C41.3763 192.764 40.4732 193.667 40.4732 194.781C40.4732 195.895 41.3763 196.798 42.4903 196.798Z" fill="#319F1C"/>
<defs>
<filter id="filter0_d_4_11" x="0" y="0" width="103" height="80" filterUnits="userSpaceOnUse" color-interpolation-filters="sRGB">
<feFlood flood-opacity="0" result="BackgroundImageFix"/>
<feColorMatrix in="SourceAlpha" type="matrix" values="0 0 0 0 0 0 0 0 0 0 0 0 0 0 0 0 0 0 127 0" result="hardAlpha"/>
<feOffset/>
<feGaussianBlur stdDeviation="4"/>
<feColorMatrix type="matrix" values="0 0 0 0 0 0 0 0 0 0 0 0 0 0 0 0 0 0 0.1 0"/>
<feBlend mode="normal" in2="BackgroundImageFix" result="effect1_dropShadow_4_11"/>
<feBlend mode="normal" in="SourceGraphic" in2="effect1_dropShadow_4_11" result="shape"/>
</filter>
<filter id="filter1_d_4_11" x="0" y="74" width="103" height="80" filterUnits="userSpaceOnUse" color-interpolation-filters="sRGB">
<feFlood flood-opacity="0" result="BackgroundImageFix"/>
<feColorMatrix in="SourceAlpha" type="matrix" values="0 0 0 0 0 0 0 0 0 0 0 0 0 0 0 0 0 0 127 0" result="hardAlpha"/>
<feOffset/>
<feGaussianBlur stdDeviation="4"/>
<feColorMatrix type="matrix" values="0 0 0 0 0 0 0 0 0 0 0 0 0 0 0 0 0 0 0.1 0"/>
<feBlend mode="normal" in2="BackgroundImageFix" result="effect1_dropShadow_4_11"/>
<feBlend mode="normal" in="SourceGraphic" in2="effect1_dropShadow_4_11" result="shape"/>
</filter>
<filter id="filter2_d_4_11" x="0" y="148" width="103" height="80" filterUnits="userSpaceOnUse" color-interpolation-filters="sRGB">
<feFlood flood-opacity="0" result="BackgroundImageFix"/>
<feColorMatrix in="SourceAlpha" type="matrix" values="0 0 0 0 0 0 0 0 0 0 0 0 0 0 0 0 0 0 127 0" result="hardAlpha"/>
<feOffset/>
<feGaussianBlur stdDeviation="4"/>
<feColorMatrix type="matrix" values="0 0 0 0 0 0 0 0 0 0 0 0 0 0 0 0 0 0 0.1 0"/>
<feBlend mode="normal" in2="BackgroundImageFix" result="effect1_dropShadow_4_11"/>
<feBlend mode="normal" in="SourceGraphic" in2="effect1_dropShadow_4_11" result="shape"/>
</filter>
<filter id="filter3_d_4_11" x="0" y="222" width="103" height="80" filterUnits="userSpaceOnUse" color-interpolation-filters="sRGB">
<feFlood flood-opacity="0" result="BackgroundImageFix"/>
<feColorMatrix in="SourceAlpha" type="matrix" values="0 0 0 0 0 0 0 0 0 0 0 0 0 0 0 0 0 0 127 0" result="hardAlpha"/>
<feOffset/>
<feGaussianBlur stdDeviation="4"/>
<feColorMatrix type="matrix" values="0 0 0 0 0 0 0 0 0 0 0 0 0 0 0 0 0 0 0.1 0"/>
<feBlend mode="normal" in2="BackgroundImageFix" result="effect1_dropShadow_4_11"/>
<feBlend mode="normal" in="SourceGraphic" in2="effect1_dropShadow_4_11" result="shape"/>
</filter>
<clipPath id="clip0_4_11">
<rect width="36" height="36" fill="white" transform="translate(34 96)"/>
</clipPath>
</defs>
</svg>