<svg xmlns="http://www.w3.org/2000/svg" width="12" height="26" viewBox="0 0 12 26" fill="none">
<path fill-rule="evenodd" clip-rule="evenodd" d="M2.64193 12.6821V24.8493C2.64193 25.0244 2.78444 25.166 2.96019 25.166H7.4878C7.66269 25.166 7.8052 25.0244 7.8052 24.8493L7.80549 12.4836H11.0872C11.2523 12.4836 11.3893 12.3579 11.404 12.194L11.7194 8.46791C11.735 8.28329 11.589 8.12406 11.4032 8.12406H7.80549V5.48114C7.80549 4.86123 8.30759 4.35901 8.92908 4.35901H11.459C11.6339 4.35901 11.7761 4.21737 11.7761 4.04285L11.7764 0.317024C11.7764 0.141348 11.6339 0.000288466 11.4587 0.000288466L7.18429 0C4.67521 0 2.64193 2.02936 2.64193 4.53209V8.12406H0.377984C0.202522 8.12406 0.0603027 8.26656 0.0603027 8.44109V12.1669C0.0603027 12.3423 0.202233 12.4836 0.377984 12.4836H2.64193V12.6821Z" fill="white"/>
</svg>