<svg xmlns="http://www.w3.org/2000/svg" width="10" height="10" viewBox="0 0 10 10" fill="none">
<g clip-path="url(#clip0_4_69)">
<path d="M7.81256 3.75H7.50006V2.5C7.50006 1.12125 6.37881 0 5.00006 0C3.62131 0 2.50006 1.12125 2.50006 2.5V3.75H2.18756C1.67089 3.75 1.25006 4.17042 1.25006 4.6875V9.0625C1.25006 9.57958 1.67089 10 2.18756 10H7.81256C8.32923 10 8.75006 9.57958 8.75006 9.0625V4.6875C8.75006 4.17042 8.32923 3.75 7.81256 3.75ZM3.33339 2.5C3.33339 1.58083 4.08089 0.833333 5.00006 0.833333C5.91923 0.833333 6.66673 1.58083 6.66673 2.5V3.75H3.33339V2.5ZM5.41673 6.9675V7.91667C5.41673 8.14667 5.23048 8.33333 5.00006 8.33333C4.76964 8.33333 4.58339 8.14667 4.58339 7.91667V6.9675C4.33548 6.82292 4.16673 6.55708 4.16673 6.25C4.16673 5.79042 4.54048 5.41667 5.00006 5.41667C5.45964 5.41667 5.83339 5.79042 5.83339 6.25C5.83339 6.55708 5.66464 6.82292 5.41673 6.9675Z" fill="black"/>
</g>
<defs>
<clipPath id="clip0_4_69">
<rect width="10" height="10" fill="white"/>
</clipPath>
</defs>
</svg>